<svg xmlns="http://www.w3.org/2000/svg" viewBox="0 0 917.06 788.3"><defs><style>.cls-1{font-size:295.24px;fill:#1d1d1b;font-family:Luminari-Regular, Luminari;}.cls-2{fill:#010101;}</style></defs><title>logo</title><g id="Layer_2" data-name="Layer 2"><g id="Layer_1-2" data-name="Layer 1"><text class="cls-1" transform="translate(115.89 501.5)">KKK</text><path class="cls-2" d="M9,689.91a30.94,30.94,0,0,0,19.29,6.32c9.76,0,19.38-4,23.63-11.77A12.45,12.45,0,0,0,48.22,668,18.49,18.49,0,0,0,37,664a14.58,14.58,0,0,0-4.06.56,12,12,0,0,0-5.54,3.23,7.06,7.06,0,0,0-2,4.75,6.81,6.81,0,0,0,3.17,5.59A14.7,14.7,0,0,0,36,680.33a9.87,9.87,0,0,1-8.69,4.86,12.61,12.61,0,0,1-9-4c-2.54-2.66-4.31-6.63-4.32-12,0-.54,0-1.11.06-1.69.38-5.55,2.42-9.23,5.7-11.65s8-3.54,13.68-3.54c14.37,0,34.83,7.21,54,17,14.53,7.4,31.79,12.4,48,12.4,11.26,0,22-2.42,30.94-8.22,7.75-5,14-12.61,18-23.2,1.21,6.43,5.6,11.75,11.43,15.56A45.64,45.64,0,0,0,220,672.85a38,38,0,0,0,8.39-.9,1,1,0,0,0,.24-1.81c-6.61-3.53-11.13-7.38-14-11.33a20.33,20.33,0,0,1-4.09-12.1c0-9.26,6.46-18.79,15.27-26.23s19.84-12.77,28.48-13.86a90.21,90.21,0,0,1,11.15-.73c8.64,0,15.38,1.49,19.87,3.85a14.65,14.65,0,0,1,5,4A7.83,7.83,0,0,1,292,618.5a8.25,8.25,0,0,1-.11,1.3,14.31,14.31,0,0,0-.21,2.39,11.19,11.19,0,0,0,4.18,8.92,13.86,13.86,0,0,0,8.61,3,12.78,12.78,0,0,0,2.56-.26,24.26,24.26,0,0,1,4.76-.41,49.76,49.76,0,0,1,30.25,10.8,51.75,51.75,0,0,0-14.42-2.12c-13.95,0-25.62,5.93-38.41,11.4A18.55,18.55,0,0,1,282,655.2a8.48,8.48,0,0,1-6-2.11,7,7,0,0,1-2.1-5.14c0-4.41,3.52-10.22,12.22-14.1a1,1,0,0,0-.37-1.86c-1.76,0-3.46-.07-5.1-.07-15.56,0-25.57,2-31.84,5.37a17,17,0,0,0-6.72,6,14.11,14.11,0,0,0-2,7.41c0,6.21,3.21,12.78,6.45,18.56,1.63,2.88,3.27,5.56,4.57,7.86a20.81,20.81,0,0,1,2.42,5.4,6.49,6.49,0,0,1,.12,1.28,5.12,5.12,0,0,1-.82,2.87,8.11,8.11,0,0,1-4.26,2.93,23.62,23.62,0,0,1-7.51,1.06c-6.38,0-14.48-1.74-22.58-5.31a1,1,0,0,0-1.15.28,1,1,0,0,0,0,1.18c11.85,16.47,24,22.34,35.11,22.33,7.95,0,15.3-3,21.67-6.92a86.8,86.8,0,0,0,14.48-11.63c1,6.75,3.92,11.73,8,15,4.47,3.61,10.24,5.19,16.21,5.19A39.58,39.58,0,0,0,333.13,705c6-3.73,10.86-9.05,12.7-15.48a1,1,0,0,0-1.27-1.19,40.28,40.28,0,0,1-13.42,2.31c-5.46,0-10.66-1.17-14.39-3.58a12.45,12.45,0,0,1-6.08-11,20.26,20.26,0,0,1,.7-5.08,13.09,13.09,0,0,1,6.19-8.4c3-1.74,6.88-2.53,11.32-2.53,12,0,27.73,5.71,39.93,12.19a53.65,53.65,0,0,0,25.62,6.16c13.62,0,27.66-4.26,41.76-9.7a11.86,11.86,0,0,0-1,4.79c0,4,1.93,8.24,5.76,12.07,4.6,4.6,6.34,8.31,6.32,11a6.13,6.13,0,0,1-1.29,3.81,11,11,0,0,1-3.63,2.93,7,7,0,0,1-3.32.79c-2.85,0-6.18-1.5-8.8-4.73s-4.55-8.18-4.55-15a1,1,0,0,0-.68-.93,28.38,28.38,0,0,0-8.51-1.38,21.62,21.62,0,0,0-16,6.8,22.34,22.34,0,0,0-6,15.16,21.23,21.23,0,0,0,7.14,15.87c4.56,4.14,11.42,7.11,20.82,8-4.27,4.24-6.19,8.64-6.18,13.06s1.83,8.64,4.68,12.78c4.3,6.2,11,12.2,17.83,18s14,11.27,19.07,16.38a1,1,0,0,0,1.38,0c6.82-6.82,17.14-14.33,25.79-22.21a74.92,74.92,0,0,0,11.11-12.12c2.85-4.14,4.67-8.41,4.67-12.78s-1.9-8.82-6.17-13.06c9.4-.89,16.26-3.86,20.82-8A21.23,21.23,0,0,0,522.58,704a22.3,22.3,0,0,0-6-15.16,21.58,21.58,0,0,0-16-6.8,28.38,28.38,0,0,0-8.51,1.38,1,1,0,0,0-.68.93c0,6.85-1.93,11.8-4.55,15s-5.95,4.73-8.8,4.73a7,7,0,0,1-3.32-.79,11,11,0,0,1-3.63-2.93,6.13,6.13,0,0,1-1.29-3.81c0-2.74,1.71-6.45,6.32-11,3.83-3.83,5.76-8.07,5.76-12.07a11.86,11.86,0,0,0-1-4.79c14.11,5.44,28.14,9.69,41.76,9.7a53.65,53.65,0,0,0,25.62-6.16c12.19-6.48,28-12.2,39.92-12.19,4.45,0,8.34.79,11.32,2.53a13,13,0,0,1,6.19,8.4,19.79,19.79,0,0,1,.71,5.08,12.45,12.45,0,0,1-6.08,11c-3.74,2.41-8.93,3.59-14.39,3.58a40.28,40.28,0,0,1-13.42-2.31,1,1,0,0,0-1,.21,1,1,0,0,0-.27,1c1.85,6.43,6.66,11.75,12.69,15.48a39.6,39.6,0,0,0,20.32,5.87c6,0,11.74-1.58,16.22-5.19,4.08-3.28,7-8.26,8-15a86.7,86.7,0,0,0,14.47,11.63c6.37,4,13.73,6.92,21.68,6.92,11.13,0,23.26-5.86,35.11-22.33a1,1,0,0,0,0-1.18,1,1,0,0,0-1.15-.28c-8.1,3.57-16.21,5.31-22.59,5.31a19.9,19.9,0,0,1-9.32-1.86,6.69,6.69,0,0,1-2.44-2.13,5.21,5.21,0,0,1-.83-2.87,6.54,6.54,0,0,1,.13-1.28,20.47,20.47,0,0,1,2.42-5.4c1.94-3.45,4.68-7.75,6.94-12.33s4.06-9.43,4.07-14.09a14,14,0,0,0-2-7.41c-2.09-3.46-6-6.31-12.14-8.29s-14.75-3.11-26.42-3.11c-1.63,0-3.33,0-5.1.07a1,1,0,0,0-.37,1.86c8.71,3.88,12.24,9.69,12.23,14.1a7,7,0,0,1-2.1,5.14,8.5,8.5,0,0,1-6,2.11,18.59,18.59,0,0,1-7.23-1.68c-12.79-5.47-24.45-11.39-38.41-11.4A51.69,51.69,0,0,0,575,644.24a49.76,49.76,0,0,1,30.25-10.8,24.26,24.26,0,0,1,4.76.41,12.75,12.75,0,0,0,2.55.26,13.81,13.81,0,0,0,8.61-3,11.2,11.2,0,0,0,4.19-8.92,14.41,14.41,0,0,0-.21-2.39,8.25,8.25,0,0,1-.11-1.3,7.88,7.88,0,0,1,1.65-4.73c1.66-2.22,4.62-4.21,8.82-5.63a51,51,0,0,1,16.09-2.25,90.21,90.21,0,0,1,11.15.73c8.64,1.09,19.69,6.41,28.48,13.86s15.29,17,15.26,26.23a20.25,20.25,0,0,1-4.08,12.1c-2.86,4-7.38,7.8-14,11.33a1,1,0,0,0,.24,1.81,37.91,37.91,0,0,0,8.39.9,45.64,45.64,0,0,0,24.33-7.05c5.82-3.81,10.22-9.13,11.43-15.56,4,10.59,10.27,18.17,18,23.2,8.92,5.8,19.68,8.22,30.94,8.22,16.19,0,33.45-5,48-12.4,19.13-9.76,39.59-17,54-17,5.69,0,10.38,1.13,13.67,3.54s5.33,6.1,5.71,11.65c0,.58.06,1.14.06,1.69,0,5.38-1.78,9.36-4.32,12a12.61,12.61,0,0,1-9.05,4,9.86,9.86,0,0,1-8.69-4.86,14.66,14.66,0,0,0,7.43-2.23,6.82,6.82,0,0,0,3.18-5.59,7.06,7.06,0,0,0-2-4.75,12,12,0,0,0-5.54-3.23,14.58,14.58,0,0,0-4.06-.56,18.49,18.49,0,0,0-11.27,4,12.42,12.42,0,0,0-3.68,16.48c4.25,7.75,13.87,11.76,23.63,11.77a31,31,0,0,0,19.29-6.32c5.36-4.3,9-10.95,9-19.89,0-11.7-4.32-19.14-10.72-23.46S891.69,641,883.75,641a91.18,91.18,0,0,0-11.54.8c4.21-5.53,6.11-11.27,6.11-16.64a22.55,22.55,0,0,0-7.32-16.6,26.51,26.51,0,0,0-18.18-6.85c-9.08,0-19.48,4.09-29.42,14a1,1,0,0,0,.69,1.66c6.41,0,11,1.88,14.06,4.65a13.82,13.82,0,0,1,4.5,10.33,16.52,16.52,0,0,1-5.48,12.07c-3.64,3.37-9.09,5.69-16.37,5.7A46.79,46.79,0,0,1,804.92,647c-21.26-7.72-41.39-22.93-64-36.68s-47.84-26-79.28-27.61c-2.45-.13-4.84-.19-7.15-.19-27.17,0-45.08,8.37-57.21,16.74a167.19,167.19,0,0,0-14.33,11.45,48.78,48.78,0,0,1-4.7,3.68,6.31,6.31,0,0,1-3.19,1.27,2.19,2.19,0,0,1-.85-.17,8.36,8.36,0,0,1-2.85-2.3,61.16,61.16,0,0,1-5.57-8.38c-3-5.1-6.57-11.07-11.37-15.91s-11-8.54-19.07-8.92c-.67,0-1.34-.05-2-.05a47.57,47.57,0,0,0-31,12c-8.26,7.27-13.68,17.16-13.69,27.62,0,11.67,6.83,23.85,23.48,33.46a1,1,0,0,0,1.08-.07.94.94,0,0,0,.35-1,31.38,31.38,0,0,1-1-7.78,24.67,24.67,0,0,1,7.58-18.06,23.57,23.57,0,0,1,16-6.75,17.23,17.23,0,0,1,7.77,1.77c1.77.87,3.41,2.87,4.57,5.63a26.2,26.2,0,0,1,1.85,10,29.08,29.08,0,0,1-7.38,19.67c-5.25,5.68-13.61,9.77-26.37,9.78-10.83,0-24.82-3-42.55-10.56a17.83,17.83,0,0,0-8.27-25.33c4.49-4.44,8.28-7.87,11.06-11.16,3-3.55,4.82-7.06,4.81-11.41,0-3.45-1.11-7.33-3.45-12.2-4-8.37-8.7-21.11-12.36-32.74-1.83-5.81-3.4-11.35-4.51-15.93a52.49,52.49,0,0,1-1.76-10.06,1,1,0,0,0-1.95,0,52.24,52.24,0,0,1-1.75,10.06c-3.34,13.74-10.83,36.11-16.87,48.67-2.34,4.87-3.45,8.75-3.45,12.2,0,4.35,1.82,7.86,4.81,11.41,2.78,3.29,6.57,6.72,11.06,11.16a17.83,17.83,0,0,0-8.27,25.33c-17.74,7.56-31.73,10.56-42.56,10.56-12.75,0-21.11-4.1-26.36-9.78a29.08,29.08,0,0,1-7.38-19.67,26,26,0,0,1,1.85-10c1.16-2.76,2.8-4.76,4.57-5.63a17.22,17.22,0,0,1,7.76-1.77,23.57,23.57,0,0,1,16,6.75,24.67,24.67,0,0,1,7.58,18.06,31,31,0,0,1-1,7.78,1,1,0,0,0,.35,1A1,1,0,0,0,405,653c16.65-9.61,23.49-21.79,23.48-33.46,0-10.46-5.43-20.35-13.68-27.62a47.62,47.62,0,0,0-31-12c-.67,0-1.34,0-2,.05a26.89,26.89,0,0,0-15.4,5.69c-6.25,4.77-10.57,11.67-14.16,17.66-1.79,3-3.4,5.77-4.94,7.93s-3,3.67-4.36,4.23a2.22,2.22,0,0,1-.85.17,6.31,6.31,0,0,1-3.19-1.27c-2.33-1.5-5.35-4.27-9.23-7.56-11.66-9.86-31.34-24.32-67-24.31q-3.48,0-7.15.19c-31.44,1.62-56.65,13.87-79.28,27.61s-42.77,29-64,36.68a46.83,46.83,0,0,1-15.88,3.11c-7.28,0-12.73-2.33-16.37-5.7a16.54,16.54,0,0,1-5.49-12.07A13.86,13.86,0,0,1,78.91,622c3-2.77,7.65-4.65,14.06-4.65a1,1,0,0,0,.9-.6,1,1,0,0,0-.21-1.06c-9.94-10-20.34-14-29.42-14a26.51,26.51,0,0,0-18.18,6.85,22.55,22.55,0,0,0-7.32,16.6c0,5.37,1.9,11.11,6.11,16.64a91.15,91.15,0,0,0-11.53-.8c-7.95,0-16.22,1.29-22.61,5.61S0,658.32,0,670C0,679,3.61,685.61,9,689.91Z"/><path class="cls-2" d="M9,98.39a30.94,30.94,0,0,1,19.29-6.32c9.76,0,19.38,4,23.63,11.77a12.45,12.45,0,0,1-3.68,16.48,18.49,18.49,0,0,1-11.27,4,14.58,14.58,0,0,1-4.06-.56,11.91,11.91,0,0,1-5.54-3.23,7.06,7.06,0,0,1-2-4.75,6.81,6.81,0,0,1,3.17-5.59A14.7,14.7,0,0,1,36,108a9.87,9.87,0,0,0-8.69-4.86,12.61,12.61,0,0,0-9,4c-2.54,2.66-4.31,6.63-4.32,12,0,.54,0,1.11.06,1.69.38,5.55,2.42,9.23,5.7,11.65s8,3.54,13.68,3.54c14.37,0,34.83-7.21,54-17,14.53-7.4,31.79-12.4,48-12.4,11.26,0,22,2.42,30.94,8.22,7.75,5,14,12.61,18,23.2,1.21-6.43,5.6-11.75,11.43-15.56a45.64,45.64,0,0,1,24.33-7,37.39,37.39,0,0,1,8.39.91,1,1,0,0,1,.75.82,1,1,0,0,1-.51,1c-6.61,3.52-11.13,7.37-14,11.33a20.29,20.29,0,0,0-4.09,12.1c0,9.25,6.46,18.78,15.27,26.22s19.84,12.77,28.48,13.86a90.21,90.21,0,0,0,11.15.73c8.64,0,15.38-1.49,19.87-3.85a14.54,14.54,0,0,0,5-4A7.83,7.83,0,0,0,292,169.8a8.25,8.25,0,0,0-.11-1.3,14.31,14.31,0,0,1-.21-2.39,11.19,11.19,0,0,1,4.18-8.92,13.86,13.86,0,0,1,8.61-3,12.78,12.78,0,0,1,2.56.26,24.26,24.26,0,0,0,4.76.41,49.76,49.76,0,0,0,30.25-10.8,51.39,51.39,0,0,1-14.42,2.12c-13.95,0-25.62-5.93-38.41-11.4A18.55,18.55,0,0,0,282,133.1a8.44,8.44,0,0,0-6,2.12,7,7,0,0,0-2.1,5.13c0,4.42,3.52,10.23,12.22,14.1a1,1,0,0,1-.37,1.86c-1.76.05-3.46.07-5.1.07-15.56,0-25.57-2-31.84-5.37a17,17,0,0,1-6.72-6,14.17,14.17,0,0,1-2-7.42c0-6.21,3.21-12.78,6.45-18.56,1.63-2.88,3.27-5.56,4.57-7.86a20.81,20.81,0,0,0,2.42-5.4,6.49,6.49,0,0,0,.12-1.28,5.12,5.12,0,0,0-.82-2.87,8.11,8.11,0,0,0-4.26-2.93,23.62,23.62,0,0,0-7.51-1.06c-6.38,0-14.48,1.74-22.58,5.31a1,1,0,0,1-1.15-.28,1,1,0,0,1,0-1.18c11.85-16.47,24-22.34,35.11-22.33,7.95,0,15.3,3,21.67,6.92a86.8,86.8,0,0,1,14.48,11.63c1-6.75,3.92-11.73,8-15,4.47-3.61,10.24-5.19,16.21-5.19a39.58,39.58,0,0,1,20.32,5.87c6,3.73,10.86,9.05,12.7,15.48a1,1,0,0,1-1.27,1.19,40.28,40.28,0,0,0-13.42-2.31c-5.46,0-10.66,1.17-14.39,3.58a12.45,12.45,0,0,0-6.08,11,20.26,20.26,0,0,0,.7,5.08,13.09,13.09,0,0,0,6.19,8.4c3,1.74,6.88,2.53,11.32,2.53,12,0,27.73-5.71,39.93-12.19A53.65,53.65,0,0,1,394.43,110c13.62,0,27.66,4.26,41.76,9.7a11.86,11.86,0,0,1-1-4.79c0-4,1.93-8.24,5.76-12.07,4.6-4.6,6.34-8.31,6.32-11A6.13,6.13,0,0,0,446,87.94,11,11,0,0,0,442.34,85a7,7,0,0,0-3.32-.79c-2.85,0-6.18,1.5-8.8,4.73s-4.55,8.18-4.55,15a1,1,0,0,1-.68.93,28.38,28.38,0,0,1-8.51,1.38,21.62,21.62,0,0,1-16-6.8,22.34,22.34,0,0,1-6-15.16,21.23,21.23,0,0,1,7.14-15.87c4.56-4.14,11.42-7.11,20.82-8-4.27-4.24-6.19-8.64-6.18-13.06s1.83-8.64,4.68-12.78c4.3-6.2,11-12.19,17.83-17.95S452.73,5.4,457.84.29a1,1,0,0,1,1.38,0C466,7.11,476.36,14.62,485,22.5a74.92,74.92,0,0,1,11.11,12.12c2.85,4.14,4.67,8.41,4.67,12.78s-1.9,8.82-6.17,13.06c9.4.89,16.26,3.86,20.82,8a21.23,21.23,0,0,1,7.14,15.87,22.3,22.3,0,0,1-6,15.16,21.58,21.58,0,0,1-16,6.8,28.38,28.38,0,0,1-8.51-1.38,1,1,0,0,1-.68-.93c0-6.85-1.93-11.8-4.55-15s-5.95-4.73-8.8-4.73a7,7,0,0,0-3.32.79,11,11,0,0,0-3.63,2.93,6.13,6.13,0,0,0-1.29,3.81c0,2.74,1.71,6.45,6.32,11,3.83,3.83,5.76,8.07,5.76,12.07a11.86,11.86,0,0,1-1,4.79C495,114.22,509,110,522.63,110a53.65,53.65,0,0,1,25.62,6.16c12.19,6.48,28,12.2,39.92,12.19,4.45,0,8.34-.79,11.32-2.53a13,13,0,0,0,6.19-8.4,19.79,19.79,0,0,0,.71-5.08,12.45,12.45,0,0,0-6.08-11c-3.74-2.41-8.93-3.59-14.39-3.58A40.28,40.28,0,0,0,572.5,100a1,1,0,0,1-1-.21,1,1,0,0,1-.27-1c1.85-6.43,6.66-11.75,12.69-15.48a39.6,39.6,0,0,1,20.32-5.87c6,0,11.74,1.58,16.22,5.19,4.08,3.28,7,8.26,8,15a86.7,86.7,0,0,1,14.47-11.63c6.37-4,13.73-6.92,21.68-6.92,11.13,0,23.26,5.86,35.11,22.33a1,1,0,0,1,0,1.18,1,1,0,0,1-1.15.28c-8.1-3.57-16.21-5.31-22.59-5.31a19.9,19.9,0,0,0-9.32,1.86,6.69,6.69,0,0,0-2.44,2.13,5.21,5.21,0,0,0-.83,2.87,6.54,6.54,0,0,0,.13,1.28,20.47,20.47,0,0,0,2.42,5.4c1.94,3.45,4.68,7.75,6.94,12.33s4.06,9.43,4.07,14.09a14.08,14.08,0,0,1-2,7.42c-2.09,3.45-6,6.3-12.14,8.28s-14.75,3.11-26.42,3.11c-1.63,0-3.33,0-5.1-.07a1,1,0,0,1-.37-1.86c8.71-3.87,12.24-9.68,12.23-14.1a7,7,0,0,0-2.1-5.13,8.46,8.46,0,0,0-6-2.12,18.59,18.59,0,0,0-7.23,1.68c-12.79,5.47-24.45,11.39-38.41,11.4A51.32,51.32,0,0,1,575,144.06a49.76,49.76,0,0,0,30.25,10.8,24.26,24.26,0,0,0,4.76-.41,12.75,12.75,0,0,1,2.55-.26,13.81,13.81,0,0,1,8.61,3,11.2,11.2,0,0,1,4.19,8.92,14.41,14.41,0,0,1-.21,2.39,8.25,8.25,0,0,0-.11,1.3,7.88,7.88,0,0,0,1.65,4.73c1.66,2.22,4.62,4.21,8.82,5.63a51,51,0,0,0,16.09,2.25,90.21,90.21,0,0,0,11.15-.73c8.64-1.09,19.69-6.41,28.48-13.86s15.29-17,15.26-26.22a20.21,20.21,0,0,0-4.08-12.1c-2.86-4-7.38-7.81-14-11.33a1,1,0,0,1-.51-1,1,1,0,0,1,.75-.82,37.33,37.33,0,0,1,8.39-.91,45.64,45.64,0,0,1,24.33,7c5.82,3.81,10.22,9.13,11.43,15.56,4-10.59,10.27-18.17,18-23.2,8.92-5.8,19.68-8.22,30.94-8.22,16.19,0,33.45,5,48,12.4,19.13,9.76,39.59,17,54,17,5.69,0,10.38-1.13,13.67-3.54s5.33-6.1,5.71-11.65c0-.58.06-1.14.06-1.69,0-5.38-1.78-9.36-4.32-12a12.61,12.61,0,0,0-9.05-4,9.86,9.86,0,0,0-8.69,4.86,14.66,14.66,0,0,1,7.43,2.23,6.82,6.82,0,0,1,3.18,5.59,7.06,7.06,0,0,1-2,4.75,11.91,11.91,0,0,1-5.54,3.23,14.58,14.58,0,0,1-4.06.56,18.49,18.49,0,0,1-11.27-4,12.42,12.42,0,0,1-3.68-16.48c4.25-7.75,13.87-11.76,23.63-11.77a31,31,0,0,1,19.29,6.32c5.36,4.3,9,11,9,19.89,0,11.7-4.32,19.14-10.72,23.46s-14.65,5.61-22.59,5.61a91.18,91.18,0,0,1-11.54-.8c4.21,5.53,6.11,11.28,6.11,16.64a22.55,22.55,0,0,1-7.32,16.6,26.51,26.51,0,0,1-18.18,6.85c-9.08,0-19.48-4.09-29.42-14a1,1,0,0,1,.69-1.66c6.41,0,11-1.88,14.06-4.65a13.82,13.82,0,0,0,4.5-10.33,16.52,16.52,0,0,0-5.48-12.07c-3.64-3.37-9.09-5.69-16.37-5.7a46.79,46.79,0,0,0-15.88,3.11c-21.26,7.72-41.39,22.93-64,36.68s-47.84,26-79.28,27.61c-2.45.13-4.84.19-7.15.19-27.17,0-45.08-8.37-57.21-16.74a167.19,167.19,0,0,1-14.33-11.45,48.78,48.78,0,0,0-4.7-3.68,6.31,6.31,0,0,0-3.19-1.27,2.19,2.19,0,0,0-.85.17,8.36,8.36,0,0,0-2.85,2.3,61.16,61.16,0,0,0-5.57,8.38c-3,5.1-6.57,11.07-11.37,15.91s-11,8.54-19.07,8.92c-.67,0-1.34.05-2,.05a47.57,47.57,0,0,1-31-12c-8.26-7.27-13.68-17.16-13.69-27.62,0-11.67,6.83-23.85,23.48-33.46a1,1,0,0,1,1.08.07,1,1,0,0,1,.35,1,31.25,31.25,0,0,0-1,7.77,24.67,24.67,0,0,0,7.58,18.06,23.57,23.57,0,0,0,16,6.75,17.35,17.35,0,0,0,7.77-1.76c1.77-.88,3.41-2.88,4.57-5.64a26.2,26.2,0,0,0,1.85-10,29.08,29.08,0,0,0-7.38-19.67c-5.25-5.68-13.61-9.77-26.37-9.78-10.83,0-24.82,3-42.55,10.56a17.83,17.83,0,0,1-8.27,25.33c4.49,4.44,8.28,7.87,11.06,11.16,3,3.55,4.82,7.06,4.81,11.42,0,3.44-1.11,7.32-3.45,12.19-4,8.37-8.7,21.11-12.36,32.74-1.83,5.81-3.4,11.35-4.51,15.93a52.49,52.49,0,0,0-1.76,10.06,1,1,0,1,1-1.95,0,52.24,52.24,0,0,0-1.75-10.06c-3.34-13.74-10.83-36.11-16.87-48.67-2.34-4.87-3.45-8.75-3.45-12.19,0-4.36,1.82-7.87,4.81-11.42,2.78-3.29,6.57-6.72,11.06-11.16a17.83,17.83,0,0,1-8.27-25.33c-17.74-7.56-31.73-10.56-42.56-10.56-12.75,0-21.11,4.1-26.36,9.78a29.08,29.08,0,0,0-7.38,19.67,26,26,0,0,0,1.85,10c1.16,2.76,2.8,4.76,4.57,5.64A17.34,17.34,0,0,0,381,169a23.57,23.57,0,0,0,16-6.75,24.67,24.67,0,0,0,7.58-18.06,30.82,30.82,0,0,0-1-7.77,1,1,0,0,1,.35-1,1,1,0,0,1,1.09-.07c16.65,9.61,23.49,21.79,23.48,33.46,0,10.46-5.43,20.35-13.68,27.62a47.62,47.62,0,0,1-31,12c-.67,0-1.34,0-2-.05a26.89,26.89,0,0,1-15.4-5.69c-6.25-4.77-10.57-11.66-14.16-17.66-1.79-3-3.4-5.77-4.94-7.93s-3-3.67-4.36-4.23a2.22,2.22,0,0,0-.85-.17,6.31,6.31,0,0,0-3.19,1.27c-2.33,1.5-5.35,4.27-9.23,7.56-11.66,9.86-31.34,24.32-67,24.31q-3.48,0-7.15-.19C224,204,198.8,191.72,176.17,178s-42.77-29-64-36.68a46.83,46.83,0,0,0-15.88-3.11c-7.28,0-12.73,2.33-16.37,5.7A16.54,16.54,0,0,0,74.4,156a13.86,13.86,0,0,0,4.51,10.33c3,2.77,7.65,4.65,14.06,4.65a1,1,0,0,1,.9.6,1,1,0,0,1-.21,1.06c-9.94,10-20.34,14-29.42,14a26.51,26.51,0,0,1-18.18-6.85,22.55,22.55,0,0,1-7.32-16.6c0-5.36,1.9-11.11,6.11-16.64a91.15,91.15,0,0,1-11.53.8c-7.95,0-16.22-1.29-22.61-5.61S0,130,0,118.28C0,109.34,3.61,102.69,9,98.39Z"/></g></g></svg>